<svg width="10" height="7" viewBox="0 0 10 7" fill="none" xmlns="http://www.w3.org/2000/svg">
<path d="M0.0401023 0.188968C0.00951564 0.246756 -0.00401468 0.311758 0.00103226 0.376668C0.0060792 0.441578 0.0295034 0.503822 0.0686714 0.556402L4.71115 6.85528C4.74426 6.90009 4.78773 6.93657 4.83802 6.96173C4.8883 6.98688 4.94395 7 5.00041 7C5.05687 7 5.11252 6.98688 5.1628 6.96173C5.21308 6.93657 5.25656 6.90009 5.28967 6.85528L9.93215 0.556402C9.97651 0.49636 10.0003 0.424065 10 0.349939C9.99932 0.294082 9.9859 0.239082 9.96072 0.188968C9.93055 0.131912 9.88494 0.0840953 9.82887 0.0507626C9.77281 0.01743 9.70846 -0.000132116 9.64288 1.53781e-06L5.00041 2.33333L0.357933 1.35797e-06C0.292357 -0.000132299 0.22801 0.0174298 0.171946 0.0507624C0.115882 0.0840951 0.0702672 0.131912 0.0401023 0.188968Z" fill="#EFC250"/>
</svg>
