<svg width="14" height="14" viewBox="0 0 14 14" fill="none" xmlns="http://www.w3.org/2000/svg">
<path d="M11.3654 0.333252H5.30156C4.0327 0.333252 3.00016 1.36579 3.00016 2.63465V2.99992H2.6349C1.36603 2.99992 0.333496 4.03245 0.333496 5.30132V11.3651C0.333496 12.6341 1.36603 13.6666 2.6349 13.6666H8.6987C9.86436 13.6666 10.8202 12.7921 10.9696 11.6666H11.3654C12.6343 11.6666 13.6668 10.6341 13.6668 9.36518V2.63465C13.6668 1.36579 12.6343 0.333252 11.3654 0.333252ZM12.3335 9.36518C12.3335 9.89898 11.8992 10.3333 11.3654 10.3333H11.0002V5.30132C11.0002 4.03245 9.96763 2.99992 8.69876 2.99992H4.3335V2.63465C4.3335 2.10085 4.76776 1.66659 5.30156 1.66659H11.3654C11.8992 1.66659 12.3335 2.10085 12.3335 2.63465V9.36518Z" fill="white" fill-opacity="0.75"/>
</svg>
