<svg width="11" height="8" viewBox="0 0 11 8" fill="none" xmlns="http://www.w3.org/2000/svg">
<path d="M0.540102 0.688968C0.509515 0.746756 0.495985 0.811759 0.501032 0.876668C0.506079 0.941578 0.529503 1.00382 0.568671 1.0564L5.21115 7.35528C5.24426 7.40009 5.28773 7.43657 5.33802 7.46173C5.3883 7.48688 5.44395 7.5 5.50041 7.5C5.55687 7.5 5.61252 7.48688 5.6628 7.46173C5.71308 7.43657 5.75656 7.40009 5.78967 7.35528L10.4321 1.0564C10.4765 0.996359 10.5003 0.924064 10.5 0.849938C10.4993 0.794082 10.4859 0.739082 10.4607 0.688968C10.4306 0.631911 10.3849 0.584095 10.3289 0.550762C10.2728 0.517429 10.2085 0.499868 10.1429 0.500001L5.50041 2.83333L0.857933 0.500001C0.792357 0.499868 0.728009 0.51743 0.671946 0.550762C0.615882 0.584095 0.570267 0.631912 0.540102 0.688968Z" fill="white" fill-opacity="0.5"/>
</svg>
