<svg width="10" height="10" viewBox="0 0 10 10" fill="none" xmlns="http://www.w3.org/2000/svg">
<path d="M0.277901 9.76787C0.46578 9.93019 0.709047 10.0128 0.956406 9.99838C1.20052 10.0103 1.43989 9.92785 1.62534 9.76787L4.99552 6.3807L8.30917 9.71695C8.48644 9.89397 8.72574 9.99375 8.97541 9.99483C9.23777 10.0224 9.49969 9.9391 9.69871 9.76485C9.71398 9.75046 9.72874 9.7356 9.74303 9.72023C10.1023 9.3339 10.0824 8.7275 9.69871 8.36581L6.35268 5.01669L9.78663 1.56543C10.0872 1.19284 10.0682 0.654477 9.74213 0.304215C9.38151 -0.0831162 8.77677 -0.103264 8.39139 0.259175L5.00245 3.66521L1.57081 0.230418C1.21452 -0.0768058 0.689012 -0.0768058 0.332687 0.230418C-0.066545 0.574655 -0.113025 1.17957 0.228851 1.58153L3.64925 5.02524L0.277901 8.4136C-0.0926336 8.78821 -0.0926336 9.39325 0.277901 9.76787Z" fill="white" fill-opacity="0.75"/>
</svg>
