<svg width="16" height="12" viewBox="0 0 16 12" fill="none" xmlns="http://www.w3.org/2000/svg">
<path fill-rule="evenodd" clip-rule="evenodd" d="M7.50718 0.461207C7.65333 0.521799 7.77823 0.624367 7.86609 0.755943C7.95395 0.887519 8.00078 1.04219 8.00078 1.20041V10.8004C8.00075 10.9586 7.95381 11.1133 7.8659 11.2448C7.778 11.3763 7.65306 11.4788 7.5069 11.5393C7.36074 11.5999 7.19992 11.6157 7.04476 11.5849C6.8896 11.554 6.74706 11.4778 6.63518 11.366L3.66958 8.40039H1.60078C1.38861 8.40039 1.18513 8.31615 1.03509 8.16607C0.885069 8.01607 0.800781 7.81255 0.800781 7.60039V4.40041C0.800781 4.18823 0.885069 3.98475 1.03509 3.83472C1.18513 3.68469 1.38861 3.60041 1.60078 3.60041H3.66958L6.63518 0.634807C6.74706 0.522855 6.88962 0.446615 7.04485 0.415711C7.20006 0.384807 7.36097 0.400639 7.50718 0.461207ZM11.7264 0.343607C11.8764 0.193631 12.0798 0.109375 12.292 0.109375C12.5041 0.109375 12.7076 0.193631 12.8576 0.343607C13.6014 1.08573 14.1913 1.96749 14.5935 2.93825C14.9956 3.90901 15.202 4.94965 15.2008 6.00039C15.202 7.05119 14.9956 8.09183 14.5935 9.06255C14.1913 10.0333 13.6014 10.9151 12.8576 11.6572C12.7067 11.8029 12.5046 11.8836 12.2949 11.8817C12.0851 11.8799 11.8845 11.7957 11.7361 11.6474C11.5878 11.4991 11.5037 11.2985 11.5018 11.0887C11.5 10.8789 11.5806 10.6769 11.7264 10.526C12.3217 9.93247 12.7937 9.22703 13.1154 8.45039C13.4372 7.67367 13.6021 6.84103 13.6008 6.00039C13.6008 4.23241 12.8856 2.63401 11.7264 1.47481C11.5764 1.32478 11.4921 1.12133 11.4921 0.909207C11.4921 0.697071 11.5764 0.493623 11.7264 0.343607ZM9.46318 2.60601C9.5375 2.53162 9.62574 2.47261 9.72286 2.43236C9.81998 2.39209 9.92406 2.37137 10.0292 2.37137C10.1343 2.37137 10.2384 2.39209 10.3355 2.43236C10.4326 2.47261 10.5209 2.53162 10.5952 2.60601C11.0415 3.05133 11.3954 3.58045 11.6366 4.16297C11.8778 4.74549 12.0016 5.36992 12.0008 6.00039C12.0016 6.63087 11.8778 7.25527 11.6365 7.83783C11.3953 8.42031 11.0414 8.94943 10.5952 9.39479C10.4451 9.54495 10.2415 9.62927 10.0292 9.62927C9.81686 9.62927 9.61326 9.54495 9.46318 9.39479C9.3131 9.24471 9.2287 9.04111 9.2287 8.82879C9.2287 8.61655 9.3131 8.41295 9.46318 8.26279C9.76094 7.96615 9.99702 7.61351 10.158 7.22527C10.3189 6.83695 10.4014 6.42071 10.4008 6.00039C10.4014 5.58009 10.3189 5.16381 10.158 4.77553C9.9971 4.38725 9.76094 4.03464 9.46318 3.73801C9.38878 3.6637 9.32982 3.57548 9.2895 3.47836C9.24926 3.38124 9.22854 3.27713 9.22854 3.17201C9.22854 3.06687 9.24926 2.96277 9.2895 2.86565C9.32982 2.76853 9.38878 2.6803 9.46318 2.60601Z" fill="white" fill-opacity="0.75"/>
</svg>
