<svg width="36" height="36" viewBox="0 0 36 36" fill="none" xmlns="http://www.w3.org/2000/svg">
<rect x="2" y="2" width="32" height="32" rx="16" fill="url(#paint0_linear_463_4516)"/>
<rect x="1" y="1" width="34" height="34" rx="17" stroke="url(#paint1_radial_463_4516)" stroke-opacity="0.35" stroke-width="2"/>
<path d="M17.5859 8.66146C19.5998 7.47222 20.6806 6.8776 20.8281 6.8776C20.9757 6.8776 21.2274 7.01649 21.5833 7.29427C21.9392 7.57205 22.2951 7.95399 22.651 8.4401C23.0069 8.92622 23.1849 9.40365 23.1849 9.8724V14.3516C23.1849 14.7595 22.4557 15.2717 20.9974 15.888C21.2491 15.9575 21.5486 16.1701 21.8958 16.526C22.2431 16.8733 22.5469 17.2682 22.8073 17.7109C23.0764 18.1536 23.2109 18.5616 23.2109 18.9349V24.8594C23.2109 24.9115 23.0156 25.0286 22.625 25.2109C22.2431 25.3932 21.7613 25.6059 21.1797 25.849C20.5981 26.0833 19.9948 26.3134 19.3698 26.5391C18.7535 26.7648 18.1979 26.9557 17.7031 27.112C17.217 27.2596 16.8872 27.3333 16.7135 27.3333C16.4271 27.3333 16.1016 27.1597 15.737 26.8125C15.3724 26.4566 15.0556 25.9835 14.7865 25.3932C14.5174 24.803 14.3828 24.1519 14.3828 23.4401V10.6406C14.3828 9.67708 14.0182 9.11719 13.2891 8.96094V8.375L15.9844 6.85156C16.375 7.01649 16.7396 7.28125 17.0781 7.64583C17.4167 8.01042 17.5859 8.34896 17.5859 8.66146ZM19.9818 11.3307C19.9818 10.862 19.8819 10.4497 19.6823 10.0938C19.4479 9.69444 19.1354 9.52517 18.7448 9.58594C18.3542 9.63802 17.9679 9.89844 17.5859 10.3672V15.888C19.1832 15.4453 19.9818 14.4861 19.9818 13.0104V11.3307ZM18.9401 24.8854C19.2873 24.8854 19.6345 24.7422 19.9818 24.4557V20.3151C19.9818 19.0043 19.5304 18.349 18.6276 18.349C18.263 18.349 17.9158 18.4835 17.5859 18.7526V22.9062C17.5859 24.2257 18.0373 24.8854 18.9401 24.8854Z" fill="url(#paint2_linear_463_4516)"/>
<defs>
<linearGradient id="paint0_linear_463_4516" x1="-14.4567" y1="3.35971" x2="81.2253" y2="-62.2891" gradientUnits="userSpaceOnUse">
<stop stop-color="#AFAFAF"/>
<stop offset="0.205" stop-color="white"/>
<stop offset="0.275" stop-color="#C0C0C0"/>
<stop offset="1" stop-color="#D1D1D1"/>
</linearGradient>
<radialGradient id="paint1_radial_463_4516" cx="0" cy="0" r="1" gradientUnits="userSpaceOnUse" gradientTransform="translate(18 45.2221) rotate(-90) scale(107.409 35.7804)">
<stop stop-color="white"/>
<stop offset="0.147803" stop-color="#FFFDFA" stop-opacity="0.964321"/>
<stop offset="1" stop-color="#F6D176" stop-opacity="0"/>
</radialGradient>
<linearGradient id="paint2_linear_463_4516" x1="-4.66667" y1="-2.31373" x2="28.9966" y2="-50.615" gradientUnits="userSpaceOnUse">
<stop stop-color="#434343"/>
<stop offset="0.205" stop-color="white"/>
<stop offset="0.275" stop-color="#424242"/>
<stop offset="1" stop-color="#585858"/>
</linearGradient>
</defs>
</svg>
