<svg width="267" height="314" viewBox="0 0 267 314" fill="none" xmlns="http://www.w3.org/2000/svg">
<g filter="url(#filter0_i_202_27)">
<path d="M240.165 152.005C240.058 96.7736 192.232 52.0748 133.339 52.1649C101.335 52.2174 72.6538 65.4679 53.1484 86.4209C36.7503 104.041 26.8361 127.096 26.8822 152.328C26.9822 207.545 74.8151 252.243 133.724 252.161C162.528 252.116 188.648 241.365 207.8 223.926C227.805 205.72 240.219 180.218 240.165 152.005Z" fill="url(#paint0_linear_202_27)"/>
</g>
<g filter="url(#filter1_i_202_27)">
<path d="M133.744 263.653C199.395 263.555 252.545 213.556 252.428 151.991C252.312 90.4133 198.97 40.572 133.319 40.6696C67.6475 40.7672 14.496 90.7669 14.6137 152.344C14.7306 213.909 68.0721 263.751 133.744 263.653ZM133.341 52.1641C192.229 52.0763 240.058 96.7721 240.162 152.009C240.268 207.226 192.61 252.071 133.722 252.158C74.8136 252.246 26.9853 207.543 26.88 152.326C26.7746 97.0896 74.4329 52.252 133.341 52.1641Z" fill="url(#paint1_linear_202_27)"/>
</g>
<g filter="url(#filter2_i_202_27)">
<path d="M133.77 277.316C207.478 277.207 267.131 221.082 267 151.976C266.868 82.836 207.002 26.8905 133.294 27.0001C59.5645 27.1097 -0.0885205 83.2332 0.0430027 152.373C0.174526 221.48 60.0407 277.426 133.77 277.316ZM133.319 40.6695C198.97 40.5719 252.311 90.4132 252.428 151.991C252.545 213.556 199.395 263.555 133.744 263.654C68.072 263.751 14.7306 213.91 14.6136 152.344C14.4967 90.7668 67.6475 40.7671 133.319 40.6695Z" fill="url(#paint2_linear_202_27)"/>
</g>
<path d="M262.002 186C265.258 175.19 267 163.785 267 152C267 82.9644 207.23 27 133.5 27C59.77 27 6.10352e-05 82.9644 6.10352e-05 152C6.10352e-05 163.785 1.74194 175.19 4.99786 186C20.8141 133.487 72.3569 103 133.5 103C194.643 103 246.186 133.487 262.002 186Z" fill="url(#paint3_radial_202_27)"/>
<path d="M262.002 186C265.258 175.19 267 163.785 267 152C267 82.9644 207.23 27 133.5 27C59.77 27 6.10352e-05 82.9644 6.10352e-05 152C6.10352e-05 163.785 1.74194 175.19 4.99786 186C20.8141 133.487 72.3569 103 133.5 103C194.643 103 246.186 133.487 262.002 186Z" fill="url(#paint4_radial_202_27)" fill-opacity="0.75"/>
<path d="M4.99786 118C1.742 128.81 6.10352e-05 140.215 6.10352e-05 152C6.10352e-05 221.036 59.7701 277 133.5 277C207.23 277 267 221.036 267 152C267 140.215 265.258 128.81 262.002 118C246.186 170.512 194.643 201 133.5 201C72.3569 201 20.8141 170.512 4.99786 118Z" fill="url(#paint5_radial_202_27)"/>
<path d="M140.186 277.16C140.71 277.136 141.232 277.105 141.754 277.075C142.349 277.042 142.943 277.008 143.535 276.966C144.056 276.93 144.576 276.888 145.096 276.846C145.685 276.799 146.275 276.751 146.861 276.697C147.381 276.649 147.899 276.595 148.417 276.541C148.977 276.482 149.537 276.423 150.096 276.358C150.803 276.277 151.507 276.186 152.211 276.093C152.685 276.031 153.158 275.972 153.631 275.905C154.381 275.799 155.127 275.682 155.874 275.564C156.292 275.498 156.713 275.436 157.13 275.367C158.056 275.213 158.978 275.045 159.899 274.872C160.13 274.828 160.364 274.791 160.594 274.746C161.744 274.524 162.887 274.288 164.026 274.039C164.173 274.006 164.319 273.97 164.466 273.937C165.789 273.643 167.101 273.327 168.408 272.997C168.754 272.909 169.099 272.822 169.443 272.732C170.851 272.364 172.251 271.981 173.639 271.572C173.815 271.52 173.989 271.464 174.165 271.411C175.418 271.036 176.661 270.642 177.898 270.234C178.225 270.126 178.553 270.018 178.88 269.908C180.241 269.447 181.594 268.97 182.935 268.469C183.229 268.359 183.519 268.243 183.813 268.131C184.639 267.816 185.464 267.495 186.283 267.165C186.679 267.005 187.073 266.841 187.468 266.677C188.196 266.375 188.921 266.068 189.643 265.754C190.046 265.579 190.449 265.403 190.849 265.223C191.59 264.893 192.326 264.554 193.059 264.211C193.413 264.045 193.769 263.882 194.121 263.714C195.093 263.249 196.057 262.774 197.014 262.288C197.116 262.236 197.219 262.187 197.321 262.136C198.376 261.597 199.421 261.042 200.458 260.477C200.778 260.303 201.093 260.124 201.411 259.947C202.132 259.547 202.851 259.142 203.564 258.73C203.936 258.514 204.306 258.296 204.675 258.077C205.339 257.684 206 257.285 206.656 256.881C207.021 256.657 207.386 256.432 207.748 256.205C208.447 255.766 209.139 255.319 209.828 254.868C210.125 254.673 210.425 254.483 210.72 254.286C211.695 253.637 212.662 252.978 213.618 252.306C213.721 252.232 213.824 252.155 213.928 252.082C214.778 251.479 215.62 250.867 216.455 250.246C216.764 250.016 217.069 249.781 217.376 249.548C218.006 249.071 218.632 248.59 219.252 248.102C219.589 247.837 219.924 247.571 220.258 247.303C220.855 246.823 221.448 246.338 222.037 245.848C222.355 245.585 222.673 245.321 222.988 245.055C223.643 244.499 224.291 243.936 224.934 243.37C225.163 243.168 225.396 242.969 225.624 242.765C226.487 241.994 227.338 241.213 228.179 240.421C228.36 240.249 228.537 240.075 228.717 239.903C229.375 239.275 230.028 238.642 230.673 238.001C230.956 237.72 231.235 237.433 231.515 237.15C232.054 236.603 232.589 236.054 233.118 235.498C233.379 235.224 233.638 234.948 233.898 234.672C234.866 233.637 235.821 232.591 236.753 231.527C236.83 231.438 236.905 231.348 236.982 231.259C237.854 230.258 238.706 229.24 239.545 228.213C239.746 227.967 239.948 227.722 240.147 227.475C241.024 226.386 241.884 225.284 242.723 224.167C242.864 223.979 243.001 223.787 243.142 223.598C243.888 222.593 244.619 221.576 245.334 220.55C245.505 220.304 245.68 220.06 245.85 219.812C246.317 219.132 246.774 218.445 247.227 217.756C247.387 217.512 247.552 217.271 247.711 217.026C248.316 216.091 248.91 215.147 249.49 214.196C249.62 213.981 249.745 213.763 249.875 213.547C250.32 212.806 250.761 212.062 251.191 211.312C251.389 210.967 251.58 210.619 251.774 210.272C252.127 209.641 252.477 209.009 252.818 208.373C253.051 207.94 253.279 207.505 253.506 207.07C253.74 206.623 253.972 206.174 254.2 205.723C254.433 205.263 254.661 204.8 254.887 204.337C255.11 203.882 255.331 203.427 255.548 202.971C255.77 202.504 255.986 202.034 256.201 201.564C256.411 201.106 256.62 200.647 256.825 200.187C257.036 199.713 257.24 199.235 257.445 198.758C257.643 198.295 257.841 197.831 258.033 197.364C258.247 196.846 258.456 196.325 258.663 195.803C258.815 195.419 258.969 195.034 259.118 194.648C259.332 194.092 259.538 193.533 259.744 192.973C259.879 192.605 260.017 192.238 260.149 191.868C260.368 191.256 260.576 190.639 260.784 190.022C260.893 189.702 261.005 189.383 261.111 189.062C261.394 188.203 261.664 187.341 261.927 186.474C261.952 186.392 261.98 186.312 262.004 186.23C262.284 185.299 262.551 184.363 262.809 183.424C262.891 183.125 262.966 182.824 263.046 182.524C263.216 181.88 263.386 181.234 263.546 180.586C263.636 180.224 263.721 179.859 263.807 179.495C263.948 178.903 264.086 178.31 264.217 177.715C264.302 177.33 264.384 176.944 264.466 176.559C264.59 175.969 264.709 175.376 264.825 174.783C264.897 174.41 264.969 174.036 265.039 173.662C265.153 173.04 265.261 172.415 265.366 171.789C265.425 171.442 265.485 171.096 265.54 170.748C265.658 170.007 265.765 169.264 265.868 168.519C265.901 168.287 265.938 168.056 265.968 167.824C266.098 166.847 266.215 165.867 266.321 164.883C266.349 164.622 266.371 164.358 266.398 164.096C266.471 163.365 266.541 162.634 266.601 161.899C266.631 161.53 266.655 161.16 266.682 160.79C266.728 160.157 266.771 159.522 266.808 158.886C266.83 158.485 266.848 158.084 266.867 157.681C266.895 157.069 266.919 156.455 266.938 155.841C266.95 155.431 266.961 155.021 266.969 154.609C266.987 153.735 267.001 152.859 267 151.98L266.958 168.661C266.959 169.282 266.955 169.901 266.947 170.52C266.943 170.777 266.932 171.033 266.927 171.29C266.918 171.701 266.908 172.112 266.895 172.522C266.877 173.137 266.852 173.75 266.825 174.362C266.806 174.764 266.788 175.166 266.765 175.567C266.73 176.203 266.686 176.837 266.64 177.471C266.613 177.84 266.589 178.211 266.559 178.58C266.499 179.314 266.428 180.046 266.355 180.777C266.329 181.039 266.308 181.302 266.279 181.564C266.275 181.607 266.271 181.649 266.267 181.692C266.165 182.633 266.051 183.57 265.926 184.504C265.895 184.737 265.858 184.968 265.826 185.2C265.722 185.944 265.615 186.688 265.498 187.429C265.442 187.777 265.382 188.123 265.324 188.47C265.219 189.095 265.112 189.72 264.997 190.342C264.928 190.717 264.856 191.091 264.783 191.464C264.724 191.769 264.67 192.076 264.609 192.379C264.55 192.666 264.484 192.952 264.424 193.239C264.342 193.626 264.261 194.012 264.176 194.396C264.044 194.991 263.906 195.583 263.766 196.175C263.68 196.539 263.595 196.904 263.506 197.267C263.345 197.916 263.176 198.56 263.005 199.205C262.925 199.504 262.85 199.806 262.768 200.105C262.512 201.039 262.247 201.97 261.968 202.896C261.967 202.901 261.965 202.906 261.964 202.911C261.939 202.993 261.912 203.073 261.887 203.155C261.624 204.021 261.353 204.885 261.071 205.743C260.965 206.064 260.852 206.383 260.744 206.703C260.535 207.32 260.327 207.936 260.108 208.549C259.977 208.918 259.838 209.285 259.703 209.653C259.498 210.213 259.291 210.773 259.077 211.329C258.928 211.716 258.775 212.099 258.622 212.484C258.485 212.831 258.352 213.182 258.211 213.528C258.14 213.701 258.064 213.872 257.992 214.045C257.8 214.511 257.602 214.975 257.404 215.438C257.199 215.916 256.995 216.393 256.784 216.868C256.58 217.329 256.37 217.787 256.16 218.245C255.945 218.715 255.729 219.185 255.507 219.652C255.29 220.109 255.069 220.563 254.847 221.017C254.62 221.48 254.392 221.944 254.159 222.404C253.931 222.854 253.698 223.302 253.465 223.751C253.321 224.028 253.181 224.31 253.035 224.587C252.951 224.744 252.862 224.897 252.778 225.053C252.437 225.69 252.087 226.322 251.734 226.952C251.539 227.299 251.349 227.648 251.151 227.993C250.721 228.743 250.28 229.487 249.835 230.228C249.705 230.443 249.58 230.662 249.45 230.877C248.87 231.828 248.277 232.771 247.671 233.707C247.512 233.953 247.346 234.196 247.184 234.441C246.732 235.129 246.277 235.813 245.812 236.492C245.745 236.59 245.681 236.69 245.614 236.788C245.51 236.939 245.398 237.084 245.293 237.234C244.579 238.259 243.849 239.274 243.104 240.277C242.963 240.467 242.825 240.659 242.682 240.849C241.843 241.966 240.983 243.068 240.106 244.157C239.908 244.404 239.707 244.648 239.506 244.894C238.666 245.921 237.814 246.939 236.941 247.942C236.864 248.03 236.79 248.12 236.713 248.209C235.78 249.273 234.825 250.319 233.857 251.354C233.744 251.473 233.639 251.598 233.527 251.717C233.379 251.873 233.225 252.025 233.077 252.18C232.548 252.736 232.013 253.285 231.474 253.832C231.193 254.116 230.915 254.402 230.632 254.683C229.987 255.324 229.334 255.956 228.676 256.585C228.496 256.757 228.319 256.932 228.138 257.103C227.298 257.895 226.445 258.676 225.583 259.447C225.355 259.651 225.122 259.849 224.893 260.052C224.249 260.618 223.603 261.182 222.947 261.737C222.633 262.004 222.314 262.266 221.997 262.531C221.408 263.02 220.815 263.505 220.217 263.985C219.883 264.253 219.548 264.519 219.212 264.784C218.592 265.272 217.966 265.753 217.336 266.23C217.029 266.463 216.723 266.698 216.414 266.928C215.577 267.551 214.731 268.166 213.878 268.771C213.777 268.842 213.678 268.916 213.578 268.987C212.622 269.66 211.655 270.319 210.679 270.969C210.384 271.166 210.084 271.356 209.787 271.55C209.097 272.001 208.404 272.449 207.705 272.888C207.344 273.115 206.981 273.339 206.617 273.563C205.959 273.967 205.298 274.366 204.632 274.76C204.263 274.978 203.894 275.197 203.523 275.412C202.81 275.825 202.09 276.23 201.369 276.63C201.051 276.807 200.736 276.986 200.416 277.16C199.378 277.725 198.333 278.279 197.278 278.819C197.18 278.869 197.081 278.916 196.983 278.966C196.023 279.454 195.054 279.93 194.08 280.397C193.728 280.565 193.371 280.728 193.018 280.894C192.285 281.237 191.549 281.576 190.808 281.907C190.406 282.086 190.004 282.262 189.601 282.438C188.88 282.752 188.154 283.059 187.426 283.36C187.031 283.524 186.638 283.689 186.242 283.848C185.422 284.179 184.599 284.499 183.771 284.815C183.529 284.907 183.29 285.007 183.048 285.098C182.997 285.116 182.945 285.133 182.894 285.152C181.554 285.653 180.201 286.131 178.839 286.592C178.513 286.702 178.185 286.809 177.857 286.917C176.621 287.326 175.377 287.72 174.124 288.095C173.948 288.147 173.774 288.203 173.598 288.255C172.21 288.664 170.81 289.048 169.403 289.416C169.058 289.506 168.713 289.593 168.367 289.68C167.061 290.01 165.748 290.327 164.426 290.621C164.315 290.646 164.206 290.675 164.096 290.7C164.059 290.708 164.022 290.715 163.985 290.722C162.847 290.971 161.703 291.208 160.554 291.429C160.323 291.474 160.09 291.512 159.858 291.555C158.938 291.728 158.016 291.896 157.089 292.051C156.672 292.121 156.251 292.182 155.833 292.248C155.087 292.366 154.341 292.482 153.59 292.588C153.118 292.655 152.644 292.715 152.17 292.777C151.466 292.869 150.763 292.959 150.055 293.042C149.863 293.064 149.674 293.092 149.483 293.113C149.115 293.155 148.744 293.186 148.376 293.224C147.858 293.278 147.341 293.332 146.821 293.381C146.234 293.435 145.645 293.483 145.056 293.53C144.536 293.572 144.016 293.614 143.494 293.65C142.902 293.691 142.307 293.724 141.714 293.759C141.191 293.789 140.669 293.82 140.145 293.844C139.546 293.871 138.945 293.89 138.345 293.911C137.822 293.928 137.299 293.947 136.775 293.959C136.636 293.962 136.499 293.97 136.36 293.972C135.485 293.989 134.608 293.998 133.729 294C132.286 294.002 130.85 293.975 129.418 293.935C129.018 293.923 128.62 293.908 128.221 293.894C127.074 293.852 125.93 293.796 124.79 293.728C124.567 293.715 124.342 293.71 124.119 293.696C123.998 293.688 123.878 293.677 123.757 293.669C123.379 293.643 123.002 293.612 122.624 293.583C121.941 293.531 121.257 293.477 120.576 293.416C120.165 293.379 119.756 293.338 119.346 293.298C118.695 293.233 118.044 293.165 117.395 293.091C116.983 293.045 116.572 292.998 116.161 292.947C115.503 292.867 114.847 292.781 114.191 292.692C113.803 292.64 113.415 292.588 113.027 292.532C112.877 292.51 112.726 292.492 112.576 292.471C111.998 292.385 111.422 292.29 110.846 292.197C110.542 292.149 110.236 292.104 109.933 292.053C108.907 291.882 107.884 291.7 106.866 291.507C106.713 291.478 106.561 291.445 106.408 291.416C105.544 291.249 104.682 291.076 103.825 290.893C103.476 290.818 103.13 290.739 102.783 290.662C102.305 290.556 101.825 290.456 101.35 290.345C101.171 290.304 100.993 290.257 100.814 290.215C100.395 290.116 99.9784 290.013 99.5615 289.911C98.9631 289.763 98.3655 289.614 97.771 289.459C97.3487 289.35 96.9272 289.237 96.5057 289.124C95.915 288.965 95.3259 288.801 94.7382 288.634C94.3237 288.516 93.9099 288.398 93.4969 288.276C92.9008 288.101 92.307 287.92 91.7148 287.736C91.3187 287.614 90.9218 287.493 90.5264 287.367C90.3803 287.321 90.2319 287.277 90.0857 287.23C89.675 287.098 89.2689 286.956 88.8605 286.82C88.3998 286.667 87.9375 286.515 87.4783 286.357C86.9292 286.168 86.3846 285.972 85.8385 285.776C85.3878 285.614 84.9355 285.455 84.4879 285.289C83.9334 285.083 83.3834 284.87 82.8319 284.658C82.3989 284.491 81.9644 284.327 81.5336 284.157C80.9691 283.933 80.4091 283.7 79.8484 283.469C79.4362 283.299 79.0224 283.133 78.6124 282.96C78.5578 282.936 78.5024 282.915 78.4478 282.892C78.1317 282.758 77.8218 282.614 77.5072 282.478C76.848 282.192 76.1881 281.906 75.5343 281.61C75.1228 281.424 74.7167 281.231 74.3075 281.041C73.7061 280.761 73.1046 280.481 72.5085 280.194C72.0816 279.988 71.6586 279.776 71.2341 279.566C70.6626 279.283 70.0919 278.999 69.5258 278.708C69.0951 278.487 68.6674 278.262 68.2398 278.037C67.6852 277.745 67.1322 277.451 66.5823 277.152C66.39 277.047 66.1931 276.948 66.0016 276.842C65.8193 276.742 65.6432 276.634 65.4616 276.533C64.5748 276.04 63.6957 275.536 62.8219 275.024C62.5635 274.873 62.302 274.725 62.0451 274.571C60.946 273.916 59.8577 273.248 58.7809 272.565C58.537 272.41 58.2971 272.25 58.054 272.094C57.1995 271.545 56.3527 270.986 55.512 270.418C55.1951 270.204 54.879 269.989 54.5644 269.772C53.6745 269.159 52.7923 268.536 51.9186 267.904C51.7847 267.807 51.6471 267.714 51.5133 267.618C51.4748 267.59 51.4379 267.56 51.3994 267.532C50.4841 266.862 49.5773 266.181 48.6813 265.488C48.4951 265.345 48.3136 265.196 48.1283 265.052C47.4199 264.498 46.7161 263.941 46.0208 263.375C45.7124 263.124 45.4093 262.868 45.104 262.615C44.5364 262.144 43.9711 261.672 43.4127 261.192C43.0804 260.907 42.7519 260.619 42.4227 260.331C41.8951 259.868 41.3706 259.403 40.8507 258.933C40.5215 258.635 40.193 258.337 39.8669 258.036C39.3462 257.555 38.8316 257.07 38.3194 256.582C38.0125 256.289 37.7048 255.998 37.401 255.703C36.8442 255.161 36.2958 254.613 35.7497 254.062C35.5036 253.815 35.2544 253.57 35.0106 253.32C34.2268 252.517 33.4522 251.706 32.69 250.884C32.6293 250.819 32.5716 250.752 32.5108 250.687C31.8117 249.929 31.1218 249.164 30.4418 248.39C30.195 248.11 29.9542 247.824 29.7104 247.542C29.2212 246.976 28.7351 246.409 28.256 245.834C27.9806 245.504 27.7098 245.171 27.4383 244.838C26.9976 244.299 26.5607 243.757 26.13 243.21C25.8554 242.863 25.5839 242.514 25.3132 242.164C24.8886 241.614 24.4694 241.06 24.0533 240.503C23.7964 240.159 23.5388 239.815 23.285 239.468C22.8489 238.87 22.4205 238.268 21.9951 237.663C21.7767 237.353 21.5552 237.045 21.3398 236.733C20.7853 235.93 20.2415 235.119 19.7062 234.304C19.63 234.188 19.5516 234.075 19.4762 233.959C18.8686 233.025 18.2748 232.083 17.6926 231.133C17.5164 230.846 17.3472 230.554 17.1734 230.265C16.7719 229.598 16.3727 228.929 15.9835 228.254C15.7751 227.892 15.572 227.528 15.3674 227.164C15.0221 226.551 14.6806 225.936 14.346 225.317C14.1376 224.931 13.9322 224.543 13.7276 224.154C13.4053 223.543 13.0893 222.928 12.777 222.31C12.5809 221.921 12.3839 221.531 12.1916 221.14C11.8747 220.495 11.5663 219.846 11.2602 219.195C11.0895 218.832 10.9164 218.471 10.7495 218.106C10.3918 217.324 10.0465 216.538 9.70577 215.748C9.60347 215.511 9.49655 215.278 9.39579 215.041C8.95969 214.013 8.53898 212.978 8.13134 211.937C8.02673 211.67 7.92982 211.399 7.82676 211.131C7.52833 210.353 7.2353 209.573 6.95302 208.788C6.81535 208.405 6.68459 208.018 6.55076 207.634C6.31463 206.955 6.08233 206.276 5.85851 205.592C5.7216 205.173 5.58858 204.753 5.45629 204.332C5.24708 203.668 5.044 203.003 4.84634 202.334C4.72096 201.909 4.59639 201.484 4.47486 201.057C4.28027 200.37 4.09414 199.68 3.91185 198.99C3.80494 198.583 3.69494 198.178 3.59188 197.77C3.39575 196.991 3.21114 196.209 3.02962 195.425C2.95578 195.105 2.87582 194.786 2.80429 194.464C2.55893 193.359 2.32741 192.249 2.11359 191.133C2.07667 190.94 2.0459 190.745 2.00975 190.552C1.83746 189.627 1.67284 188.701 1.52209 187.77C1.45825 187.377 1.40289 186.981 1.3429 186.586C1.23061 185.847 1.12215 185.107 1.02447 184.365C0.966019 183.923 0.913726 183.48 0.859886 183.037C0.774511 182.33 0.694504 181.622 0.622205 180.911C0.576056 180.456 0.531477 180.001 0.490713 179.546C0.426105 178.827 0.36916 178.107 0.317628 177.386C0.286093 176.944 0.252254 176.504 0.225335 176.061C0.177648 175.278 0.142248 174.492 0.109944 173.706C0.0945616 173.326 0.0738038 172.948 0.0614975 172.567C0.0253479 171.402 0.00230743 170.233 0 169.06L0.0422972 152.378C0.0446046 153.552 0.067645 154.72 0.103795 155.886C0.116101 156.266 0.136906 156.645 0.152289 157.024C0.184593 157.811 0.219945 158.597 0.267632 159.38C0.294552 159.822 0.327621 160.263 0.359925 160.705C0.412227 161.426 0.468402 162.146 0.53301 162.864C0.574544 163.32 0.618354 163.775 0.664502 164.229C0.736801 164.939 0.816808 165.648 0.902183 166.355C0.955254 166.798 1.00832 167.242 1.06677 167.683C1.16522 168.427 1.27367 169.166 1.3852 169.905C1.44519 170.3 1.50059 170.695 1.56443 171.089C1.71518 172.02 1.87976 172.946 2.05205 173.87C2.0882 174.064 2.11897 174.259 2.15589 174.452C2.36971 175.568 2.60123 176.678 2.84659 177.783C2.91812 178.104 2.99731 178.423 3.07192 178.744C3.25267 179.528 3.43728 180.311 3.63418 181.089C3.73724 181.497 3.84724 181.902 3.95415 182.308C4.13644 182.999 4.32257 183.689 4.51716 184.375C4.63791 184.802 4.76249 185.227 4.88863 185.652C5.0863 186.32 5.29015 186.986 5.49858 187.651C5.63088 188.071 5.76395 188.492 5.90085 188.91C6.12467 189.594 6.35693 190.274 6.59305 190.952C6.72688 191.338 6.85765 191.723 6.99532 192.106C7.2776 192.892 7.5714 193.672 7.86906 194.45C7.97135 194.718 8.06903 194.988 8.17363 195.256C8.58051 196.296 9.002 197.33 9.43734 198.358C9.53963 198.598 9.6481 198.835 9.75116 199.075C10.0904 199.861 10.4349 200.646 10.791 201.424C10.9579 201.789 11.1318 202.151 11.3017 202.514C11.6071 203.165 11.9155 203.814 12.2332 204.459C12.4255 204.851 12.6224 205.24 12.8185 205.629C13.1292 206.245 13.4454 206.859 13.7669 207.469C13.9722 207.86 14.1791 208.249 14.3891 208.638C14.7229 209.255 15.0636 209.869 15.4082 210.481C15.6135 210.845 15.8166 211.21 16.025 211.572C16.4142 212.247 16.8126 212.916 17.2149 213.583C17.3887 213.872 17.5579 214.164 17.7341 214.451C18.3163 215.4 18.9094 216.342 19.517 217.275C19.5954 217.396 19.677 217.513 19.7554 217.632C20.2884 218.444 20.8291 219.251 21.3813 220.051C21.5975 220.363 21.819 220.672 22.0382 220.983C22.4628 221.586 22.8904 222.188 23.3257 222.785C23.5803 223.133 23.8387 223.479 24.0972 223.824C24.5117 224.38 24.9309 224.933 25.3547 225.483C25.6255 225.833 25.8977 226.181 26.1723 226.529C26.6038 227.076 27.0407 227.618 27.4806 228.157C27.7521 228.489 28.0229 228.823 28.2983 229.153C28.7759 229.726 29.2612 230.292 29.7496 230.857C29.995 231.141 30.2372 231.428 30.4849 231.71C31.164 232.482 31.8532 233.247 32.5516 234.004C32.6124 234.069 32.6708 234.137 32.7308 234.202C33.4923 235.024 34.2668 235.835 35.0513 236.638C35.2959 236.888 35.5459 237.132 35.792 237.381C36.3373 237.93 36.8857 238.478 37.441 239.019C37.7464 239.316 38.0556 239.608 38.3632 239.902C38.874 240.389 39.3877 240.873 39.9069 241.352C40.2338 241.654 40.5637 241.954 40.8937 242.253C41.4121 242.722 41.9351 243.186 42.4612 243.647C42.7912 243.936 43.1219 244.226 43.455 244.511C44.0111 244.988 44.5733 245.459 45.1386 245.927C45.447 246.183 45.7531 246.442 46.0639 246.695C46.7553 247.258 47.4553 247.812 48.1598 248.361C48.349 248.509 48.5344 248.66 48.7236 248.807C49.6188 249.499 50.5249 250.179 51.4394 250.849C51.6125 250.976 51.7901 251.098 51.964 251.224C52.8354 251.857 53.7169 252.478 54.6052 253.09C54.9198 253.307 55.2359 253.522 55.5528 253.736C56.3927 254.303 57.2403 254.862 58.0948 255.412C58.3379 255.568 58.5778 255.728 58.8216 255.883C59.8984 256.566 60.9868 257.235 62.0859 257.889C62.3435 258.042 62.6043 258.191 62.8627 258.342C63.7357 258.854 64.6156 259.357 65.5024 259.851C65.8754 260.058 66.2485 260.266 66.6238 260.471C67.1737 260.769 67.7268 261.064 68.2813 261.356C68.709 261.581 69.1366 261.806 69.5673 262.027C70.1334 262.317 70.7041 262.602 71.2756 262.885C71.7001 263.095 72.1232 263.307 72.5501 263.513C73.1461 263.8 73.7476 264.08 74.3491 264.359C74.7575 264.549 75.1643 264.742 75.5758 264.928C76.2296 265.224 76.8888 265.51 77.5487 265.796C77.9179 265.956 78.2832 266.121 78.6539 266.278C79.0639 266.452 79.4777 266.618 79.89 266.787C80.4507 267.018 81.0106 267.251 81.5752 267.476C82.0044 267.646 82.4374 267.808 82.8681 267.974C83.4219 268.187 83.9741 268.402 84.5318 268.609C84.9763 268.773 85.4247 268.931 85.8724 269.091C86.4215 269.288 86.9699 269.486 87.5229 269.677C87.9798 269.834 88.4405 269.985 88.8997 270.138C89.455 270.322 90.0096 270.508 90.5687 270.686C90.9633 270.812 91.3602 270.933 91.7571 271.055C92.3501 271.238 92.9431 271.419 93.5392 271.595C93.9522 271.717 94.366 271.834 94.7805 271.952C95.3682 272.119 95.9573 272.283 96.548 272.443C96.9688 272.556 97.3903 272.668 97.8133 272.778C98.4086 272.933 99.0055 273.082 99.6039 273.229C100.021 273.332 100.438 273.435 100.856 273.533C101.51 273.688 102.167 273.835 102.825 273.981C103.173 274.057 103.519 274.137 103.867 274.211C104.725 274.394 105.586 274.567 106.45 274.735C106.603 274.764 106.755 274.797 106.908 274.826C107.926 275.02 108.949 275.201 109.975 275.372C110.279 275.423 110.584 275.467 110.889 275.516C111.614 275.632 112.341 275.746 113.07 275.852C113.457 275.907 113.845 275.959 114.234 276.012C114.889 276.101 115.546 276.187 116.204 276.267C116.615 276.317 117.026 276.364 117.438 276.411C118.087 276.484 118.738 276.553 119.389 276.617C119.798 276.658 120.208 276.698 120.619 276.735C121.3 276.797 121.984 276.851 122.667 276.903C123.045 276.931 123.422 276.963 123.8 276.988C124.143 277.011 124.489 277.027 124.833 277.048C125.973 277.117 127.116 277.173 128.264 277.214C128.663 277.228 129.061 277.243 129.461 277.255C130.893 277.295 132.329 277.322 133.772 277.32C134.791 277.319 135.805 277.302 136.818 277.279C137.343 277.267 137.865 277.248 138.388 277.231C138.986 277.207 139.588 277.187 140.186 277.16Z" fill="url(#paint6_linear_202_27)"/>
<g filter="url(#filter3_ddi_202_27)">
<path d="M125.989 86.959C141.849 77.5938 150.359 72.9111 151.521 72.9111C152.684 72.9111 154.666 74.0049 157.469 76.1924C160.271 78.3799 163.074 81.3877 165.877 85.2158C168.68 89.0439 170.081 92.8037 170.081 96.4951V131.769C170.081 134.981 164.339 139.015 152.854 143.868C154.837 144.415 157.195 146.09 159.93 148.893C162.664 151.627 165.057 154.737 167.107 158.224C169.227 161.71 170.286 164.923 170.286 167.862V214.518C170.286 214.928 168.748 215.851 165.672 217.286C162.664 218.722 158.87 220.396 154.29 222.311C149.71 224.156 144.959 225.968 140.037 227.745C135.184 229.522 130.809 231.026 126.912 232.257C123.084 233.419 120.486 234 119.119 234C116.863 234 114.3 232.633 111.429 229.898C108.558 227.096 106.062 223.37 103.943 218.722C101.824 214.073 100.765 208.946 100.765 203.341V102.545C100.765 94.957 97.8936 90.5479 92.1514 89.3174V84.7031L113.377 72.7061C116.453 74.0049 119.324 76.0898 121.99 78.9609C124.656 81.832 125.989 84.498 125.989 86.959ZM144.856 107.979C144.856 104.288 144.07 101.041 142.498 98.2383C140.652 95.0938 138.191 93.7607 135.115 94.2393C132.039 94.6494 128.997 96.7002 125.989 100.392V143.868C138.567 140.382 144.856 132.828 144.856 121.207V107.979ZM136.653 214.723C139.388 214.723 142.122 213.595 144.856 211.339V178.731C144.856 168.409 141.302 163.248 134.192 163.248C131.321 163.248 128.587 164.308 125.989 166.427V199.137C125.989 209.527 129.544 214.723 136.653 214.723Z" fill="url(#paint7_linear_202_27)"/>
</g>
<defs>
<filter id="filter0_i_202_27" x="26.8821" y="52.1647" width="213.283" height="199.996" filterUnits="userSpaceOnUse" color-interpolation-filters="sRGB">
<feFlood flood-opacity="0" result="BackgroundImageFix"/>
<feBlend mode="normal" in="SourceGraphic" in2="BackgroundImageFix" result="shape"/>
<feColorMatrix in="SourceAlpha" type="matrix" values="0 0 0 0 0 0 0 0 0 0 0 0 0 0 0 0 0 0 127 0" result="hardAlpha"/>
<feOffset dy="2"/>
<feComposite in2="hardAlpha" operator="arithmetic" k2="-1" k3="1"/>
<feColorMatrix type="matrix" values="0 0 0 0 1 0 0 0 0 1 0 0 0 0 1 0 0 0 1 0"/>
<feBlend mode="normal" in2="shape" result="effect1_innerShadow_202_27"/>
</filter>
<filter id="filter1_i_202_27" x="14.6135" y="40.6695" width="237.815" height="222.984" filterUnits="userSpaceOnUse" color-interpolation-filters="sRGB">
<feFlood flood-opacity="0" result="BackgroundImageFix"/>
<feBlend mode="normal" in="SourceGraphic" in2="BackgroundImageFix" result="shape"/>
<feColorMatrix in="SourceAlpha" type="matrix" values="0 0 0 0 0 0 0 0 0 0 0 0 0 0 0 0 0 0 127 0" result="hardAlpha"/>
<feOffset dy="4"/>
<feComposite in2="hardAlpha" operator="arithmetic" k2="-1" k3="1"/>
<feColorMatrix type="matrix" values="0 0 0 0 0.595833 0 0 0 0 0.595833 0 0 0 0 0.595833 0 0 0 1 0"/>
<feBlend mode="normal" in2="shape" result="effect1_innerShadow_202_27"/>
</filter>
<filter id="filter2_i_202_27" x="0.0427856" y="26.9999" width="266.957" height="250.316" filterUnits="userSpaceOnUse" color-interpolation-filters="sRGB">
<feFlood flood-opacity="0" result="BackgroundImageFix"/>
<feBlend mode="normal" in="SourceGraphic" in2="BackgroundImageFix" result="shape"/>
<feColorMatrix in="SourceAlpha" type="matrix" values="0 0 0 0 0 0 0 0 0 0 0 0 0 0 0 0 0 0 127 0" result="hardAlpha"/>
<feOffset dy="2"/>
<feComposite in2="hardAlpha" operator="arithmetic" k2="-1" k3="1"/>
<feColorMatrix type="matrix" values="0 0 0 0 1 0 0 0 0 1 0 0 0 0 1 0 0 0 1 0"/>
<feBlend mode="normal" in2="shape" result="effect1_innerShadow_202_27"/>
</filter>
<filter id="filter3_ddi_202_27" x="16.3514" y="0.906052" width="229.735" height="312.894" filterUnits="userSpaceOnUse" color-interpolation-filters="sRGB">
<feFlood flood-opacity="0" result="BackgroundImageFix"/>
<feColorMatrix in="SourceAlpha" type="matrix" values="0 0 0 0 0 0 0 0 0 0 0 0 0 0 0 0 0 0 127 0" result="hardAlpha"/>
<feOffset dy="4"/>
<feGaussianBlur stdDeviation="37.9"/>
<feComposite in2="hardAlpha" operator="out"/>
<feColorMatrix type="matrix" values="0 0 0 0 0.298039 0 0 0 0 0.298039 0 0 0 0 0.298039 0 0 0 1 0"/>
<feBlend mode="normal" in2="BackgroundImageFix" result="effect1_dropShadow_202_27"/>
<feColorMatrix in="SourceAlpha" type="matrix" values="0 0 0 0 0 0 0 0 0 0 0 0 0 0 0 0 0 0 127 0" result="hardAlpha"/>
<feOffset dy="4"/>
<feComposite in2="hardAlpha" operator="out"/>
<feColorMatrix type="matrix" values="0 0 0 0 0.298039 0 0 0 0 0.298039 0 0 0 0 0.298039 0 0 0 1 0"/>
<feBlend mode="normal" in2="effect1_dropShadow_202_27" result="effect2_dropShadow_202_27"/>
<feBlend mode="normal" in="SourceGraphic" in2="effect2_dropShadow_202_27" result="shape"/>
<feColorMatrix in="SourceAlpha" type="matrix" values="0 0 0 0 0 0 0 0 0 0 0 0 0 0 0 0 0 0 127 0" result="hardAlpha"/>
<feOffset dx="1" dy="1"/>
<feComposite in2="hardAlpha" operator="arithmetic" k2="-1" k3="1"/>
<feColorMatrix type="matrix" values="0 0 0 0 1 0 0 0 0 1 0 0 0 0 1 0 0 0 0.5 0"/>
<feBlend mode="normal" in2="shape" result="effect3_innerShadow_202_27"/>
</filter>
<linearGradient id="paint0_linear_202_27" x1="117.356" y1="172.984" x2="194.696" y2="68.4253" gradientUnits="userSpaceOnUse">
<stop stop-color="#C9C9C9"/>
<stop offset="1" stop-color="white"/>
</linearGradient>
<linearGradient id="paint1_linear_202_27" x1="116.251" y1="174.92" x2="185.649" y2="66.407" gradientUnits="userSpaceOnUse">
<stop stop-color="#4B4B4B"/>
<stop offset="0.465" stop-color="#787878"/>
<stop offset="1" stop-color="#626262"/>
</linearGradient>
<linearGradient id="paint2_linear_202_27" x1="42.681" y1="240.163" x2="202.02" y2="58.9338" gradientUnits="userSpaceOnUse">
<stop stop-color="#CBCBCB"/>
<stop offset="0.5" stop-color="#989898"/>
<stop offset="0.625" stop-color="white"/>
<stop offset="1" stop-color="#CACACA"/>
</linearGradient>
<radialGradient id="paint3_radial_202_27" cx="0" cy="0" r="1" gradientUnits="userSpaceOnUse" gradientTransform="translate(73.5001 7.99996) rotate(42.4792) scale(112.539 112.539)">
<stop stop-color="white"/>
<stop offset="1" stop-color="white" stop-opacity="0"/>
</radialGradient>
<radialGradient id="paint4_radial_202_27" cx="0" cy="0" r="1" gradientUnits="userSpaceOnUse" gradientTransform="translate(101 27.5) rotate(45) scale(80.6102 80.6102)">
<stop stop-color="white"/>
<stop offset="1" stop-color="white" stop-opacity="0"/>
</radialGradient>
<radialGradient id="paint5_radial_202_27" cx="0" cy="0" r="1" gradientUnits="userSpaceOnUse" gradientTransform="translate(202 265) rotate(-135) scale(81.3173 81.3173)">
<stop stop-color="white"/>
<stop offset="1" stop-color="white" stop-opacity="0"/>
</radialGradient>
<linearGradient id="paint6_linear_202_27" x1="114.111" y1="237.485" x2="145.331" y2="151.432" gradientUnits="userSpaceOnUse">
<stop stop-color="#4B4B4B"/>
<stop offset="0.465" stop-color="#787878"/>
<stop offset="1" stop-color="#626262"/>
</linearGradient>
<linearGradient id="paint7_linear_202_27" x1="103.5" y1="89.5" x2="198.249" y2="157.96" gradientUnits="userSpaceOnUse">
<stop stop-color="#CCCCCC"/>
<stop offset="0.286808" stop-color="white"/>
<stop offset="1" stop-color="#CACACA"/>
</linearGradient>
</defs>
</svg>
