<svg width="267" height="318" viewBox="0 0 267 318" fill="none" xmlns="http://www.w3.org/2000/svg">
<g filter="url(#filter0_d_43_2396)">
<path d="M242.934 154.433C242.824 98.0819 194.029 52.4769 133.942 52.5688C101.289 52.6224 72.0261 66.1416 52.1252 87.5194C35.3947 105.496 25.2794 129.019 25.3265 154.763C25.4285 211.099 74.2313 256.704 134.334 256.62C163.723 256.574 190.372 245.605 209.912 227.812C230.323 209.237 242.989 183.218 242.934 154.433Z" fill="url(#paint0_linear_43_2396)"/>
</g>
<g filter="url(#filter1_d_43_2396)">
<path d="M133.77 280.316C207.478 280.207 267.131 224.082 267 154.976C266.868 85.8361 207.002 29.8905 133.294 30.0001C59.5645 30.1097 -0.0885815 86.2332 0.0429417 155.373C0.174465 224.48 60.0406 280.426 133.77 280.316ZM133.319 43.6695C198.97 43.5719 252.311 93.4132 252.428 154.991C252.544 216.556 199.394 266.555 133.744 266.654C68.072 266.751 14.7305 216.91 14.6136 155.344C14.4967 93.7668 67.6474 43.7671 133.319 43.6695Z" fill="url(#paint1_linear_43_2396)"/>
</g>
<g filter="url(#filter2_d_43_2396)">
<path d="M140.186 280.16C140.71 280.136 141.232 280.105 141.754 280.075C142.349 280.042 142.943 280.008 143.535 279.966C144.056 279.93 144.576 279.888 145.096 279.846C145.685 279.799 146.275 279.751 146.861 279.697C147.381 279.649 147.899 279.595 148.417 279.541C148.977 279.482 149.537 279.423 150.096 279.358C150.803 279.277 151.507 279.186 152.211 279.093C152.685 279.031 153.158 278.972 153.631 278.905C154.381 278.799 155.127 278.682 155.874 278.564C156.292 278.498 156.713 278.436 157.13 278.367C158.056 278.213 158.978 278.045 159.899 277.872C160.13 277.828 160.364 277.791 160.594 277.746C161.744 277.524 162.887 277.288 164.026 277.039C164.173 277.006 164.319 276.97 164.466 276.937C165.789 276.643 167.101 276.327 168.408 275.997C168.754 275.909 169.099 275.822 169.443 275.732C170.851 275.364 172.251 274.981 173.639 274.572C173.815 274.52 173.989 274.464 174.165 274.411C175.418 274.036 176.661 273.642 177.898 273.234C178.225 273.126 178.553 273.018 178.88 272.908C180.241 272.447 181.594 271.97 182.935 271.469C183.229 271.359 183.52 271.243 183.813 271.131C184.639 270.816 185.464 270.495 186.283 270.165C186.679 270.005 187.073 269.841 187.468 269.677C188.196 269.375 188.921 269.068 189.643 268.754C190.046 268.579 190.449 268.403 190.849 268.223C191.59 267.893 192.326 267.554 193.059 267.211C193.413 267.045 193.769 266.882 194.121 266.714C195.093 266.249 196.057 265.774 197.014 265.288C197.116 265.236 197.219 265.187 197.321 265.136C198.376 264.597 199.421 264.042 200.458 263.477C200.778 263.303 201.093 263.124 201.411 262.947C202.132 262.547 202.851 262.142 203.564 261.73C203.936 261.514 204.306 261.296 204.675 261.077C205.339 260.684 206 260.285 206.656 259.881C207.021 259.657 207.386 259.432 207.748 259.205C208.447 258.766 209.139 258.319 209.828 257.868C210.125 257.673 210.425 257.483 210.72 257.286C211.695 256.637 212.662 255.978 213.618 255.306C213.721 255.232 213.824 255.155 213.928 255.082C214.778 254.479 215.62 253.867 216.455 253.246C216.764 253.016 217.069 252.781 217.376 252.548C218.006 252.071 218.632 251.59 219.252 251.102C219.589 250.837 219.924 250.571 220.258 250.303C220.855 249.823 221.448 249.338 222.037 248.848C222.355 248.585 222.673 248.321 222.988 248.055C223.643 247.499 224.291 246.936 224.934 246.37C225.163 246.168 225.396 245.969 225.624 245.765C226.487 244.994 227.338 244.213 228.179 243.421C228.361 243.249 228.537 243.075 228.717 242.903C229.375 242.275 230.028 241.642 230.673 241.001C230.956 240.72 231.235 240.433 231.515 240.15C232.054 239.603 232.589 239.054 233.118 238.498C233.379 238.224 233.638 237.948 233.898 237.672C234.866 236.637 235.821 235.591 236.753 234.527C236.83 234.438 236.905 234.348 236.982 234.259C237.854 233.258 238.706 232.24 239.545 231.213C239.746 230.967 239.948 230.722 240.147 230.475C241.024 229.386 241.884 228.284 242.723 227.167C242.864 226.979 243.001 226.787 243.142 226.598C243.888 225.593 244.619 224.576 245.334 223.55C245.505 223.304 245.68 223.06 245.85 222.812C246.317 222.132 246.774 221.445 247.227 220.756C247.387 220.512 247.552 220.271 247.711 220.026C248.316 219.091 248.91 218.147 249.49 217.196C249.62 216.981 249.745 216.763 249.875 216.547C250.32 215.806 250.761 215.062 251.191 214.312C251.389 213.967 251.58 213.619 251.774 213.272C252.127 212.641 252.477 212.009 252.818 211.373C253.051 210.94 253.279 210.505 253.506 210.07C253.74 209.623 253.972 209.174 254.2 208.723C254.433 208.263 254.661 207.8 254.887 207.337C255.11 206.882 255.331 206.427 255.548 205.971C255.77 205.504 255.986 205.034 256.201 204.564C256.411 204.106 256.62 203.647 256.825 203.187C257.036 202.713 257.24 202.235 257.445 201.758C257.643 201.295 257.841 200.831 258.033 200.364C258.247 199.846 258.456 199.325 258.663 198.803C258.815 198.419 258.969 198.034 259.118 197.648C259.332 197.092 259.538 196.533 259.744 195.973C259.879 195.605 260.017 195.238 260.149 194.868C260.368 194.256 260.576 193.639 260.784 193.022C260.893 192.702 261.005 192.383 261.111 192.062C261.394 191.203 261.664 190.341 261.927 189.474C261.952 189.392 261.98 189.312 262.004 189.23C262.284 188.299 262.551 187.363 262.809 186.424C262.891 186.125 262.966 185.824 263.046 185.524C263.216 184.88 263.386 184.234 263.546 183.586C263.636 183.224 263.721 182.859 263.807 182.495C263.948 181.903 264.086 181.31 264.217 180.715C264.302 180.33 264.384 179.944 264.466 179.559C264.59 178.969 264.709 178.376 264.825 177.783C264.897 177.41 264.969 177.036 265.039 176.662C265.153 176.04 265.261 175.415 265.366 174.789C265.425 174.442 265.485 174.096 265.54 173.748C265.658 173.007 265.765 172.264 265.868 171.519C265.901 171.287 265.938 171.056 265.968 170.824C266.098 169.847 266.215 168.867 266.322 167.883C266.349 167.622 266.371 167.358 266.398 167.096C266.471 166.365 266.541 165.634 266.601 164.899C266.631 164.53 266.655 164.16 266.682 163.79C266.728 163.157 266.771 162.522 266.808 161.886C266.83 161.485 266.848 161.084 266.867 160.681C266.895 160.069 266.919 159.455 266.938 158.841C266.95 158.431 266.961 158.021 266.969 157.609C266.987 156.735 267.001 155.859 267 154.98L266.958 171.661C266.959 172.282 266.955 172.901 266.947 173.52C266.943 173.777 266.932 174.033 266.927 174.29C266.918 174.701 266.908 175.112 266.895 175.522C266.877 176.137 266.852 176.75 266.824 177.362C266.806 177.764 266.788 178.166 266.765 178.567C266.73 179.203 266.686 179.837 266.64 180.471C266.613 180.84 266.589 181.211 266.559 181.58C266.499 182.314 266.428 183.046 266.355 183.777C266.329 184.039 266.308 184.302 266.279 184.564C266.275 184.607 266.271 184.649 266.267 184.692C266.165 185.633 266.051 186.57 265.926 187.504C265.895 187.737 265.858 187.968 265.826 188.2C265.722 188.944 265.615 189.688 265.498 190.429C265.442 190.777 265.382 191.123 265.324 191.47C265.219 192.095 265.112 192.72 264.997 193.342C264.928 193.717 264.855 194.091 264.783 194.464C264.724 194.769 264.67 195.076 264.609 195.379C264.55 195.666 264.484 195.952 264.424 196.239C264.342 196.626 264.261 197.012 264.176 197.396C264.044 197.991 263.906 198.583 263.766 199.175C263.68 199.539 263.595 199.904 263.506 200.267C263.345 200.916 263.176 201.56 263.005 202.205C262.925 202.504 262.85 202.806 262.768 203.105C262.512 204.039 262.247 204.97 261.968 205.896C261.967 205.901 261.965 205.906 261.964 205.911C261.939 205.993 261.912 206.073 261.887 206.155C261.624 207.021 261.353 207.885 261.071 208.743C260.965 209.064 260.852 209.383 260.744 209.703C260.535 210.32 260.327 210.936 260.108 211.549C259.977 211.918 259.838 212.285 259.703 212.653C259.498 213.213 259.291 213.773 259.077 214.329C258.928 214.716 258.775 215.099 258.622 215.484C258.485 215.831 258.352 216.182 258.211 216.528C258.14 216.701 258.064 216.872 257.992 217.045C257.8 217.511 257.602 217.975 257.404 218.438C257.199 218.916 256.995 219.393 256.784 219.868C256.58 220.329 256.37 220.787 256.16 221.245C255.945 221.715 255.729 222.185 255.507 222.652C255.29 223.109 255.069 223.563 254.847 224.017C254.62 224.48 254.392 224.944 254.159 225.404C253.931 225.854 253.698 226.302 253.465 226.751C253.321 227.028 253.181 227.31 253.035 227.587C252.951 227.744 252.862 227.897 252.778 228.053C252.437 228.69 252.087 229.322 251.734 229.952C251.539 230.299 251.349 230.648 251.151 230.993C250.721 231.743 250.28 232.487 249.835 233.228C249.705 233.443 249.58 233.662 249.45 233.877C248.87 234.828 248.277 235.771 247.671 236.707C247.512 236.953 247.346 237.196 247.184 237.441C246.732 238.129 246.277 238.813 245.812 239.492C245.745 239.59 245.681 239.69 245.614 239.788C245.51 239.939 245.398 240.084 245.293 240.234C244.579 241.259 243.849 242.274 243.104 243.277C242.963 243.467 242.825 243.659 242.682 243.849C241.843 244.966 240.983 246.068 240.106 247.157C239.908 247.404 239.707 247.648 239.506 247.894C238.666 248.921 237.814 249.939 236.941 250.942C236.864 251.03 236.79 251.12 236.713 251.209C235.78 252.273 234.825 253.319 233.857 254.354C233.744 254.473 233.639 254.598 233.527 254.717C233.379 254.873 233.225 255.025 233.077 255.18C232.548 255.736 232.013 256.285 231.474 256.832C231.193 257.116 230.915 257.402 230.632 257.683C229.987 258.324 229.334 258.956 228.676 259.585C228.496 259.757 228.319 259.932 228.138 260.103C227.298 260.895 226.445 261.676 225.583 262.447C225.355 262.651 225.122 262.849 224.893 263.052C224.249 263.618 223.603 264.182 222.947 264.737C222.633 265.004 222.314 265.266 221.997 265.531C221.408 266.02 220.815 266.505 220.217 266.985C219.883 267.253 219.548 267.519 219.212 267.784C218.592 268.272 217.966 268.753 217.336 269.23C217.029 269.463 216.723 269.698 216.414 269.928C215.577 270.551 214.731 271.166 213.878 271.771C213.777 271.842 213.678 271.916 213.578 271.987C212.622 272.66 211.655 273.319 210.679 273.969C210.384 274.166 210.084 274.356 209.787 274.55C209.097 275.001 208.404 275.449 207.705 275.888C207.344 276.115 206.981 276.339 206.617 276.563C205.959 276.967 205.298 277.366 204.632 277.76C204.263 277.978 203.894 278.197 203.523 278.412C202.81 278.825 202.09 279.23 201.369 279.63C201.051 279.807 200.736 279.986 200.416 280.16C199.378 280.725 198.333 281.279 197.278 281.819C197.18 281.869 197.081 281.916 196.983 281.966C196.023 282.454 195.054 282.93 194.08 283.397C193.728 283.565 193.371 283.728 193.018 283.894C192.285 284.237 191.549 284.576 190.808 284.907C190.406 285.086 190.004 285.262 189.601 285.438C188.88 285.752 188.154 286.059 187.426 286.36C187.031 286.524 186.638 286.689 186.242 286.848C185.422 287.179 184.599 287.499 183.771 287.815C183.529 287.907 183.29 288.007 183.048 288.098C182.997 288.116 182.945 288.133 182.894 288.152C181.554 288.653 180.201 289.131 178.839 289.592C178.513 289.702 178.185 289.809 177.857 289.917C176.621 290.326 175.377 290.72 174.124 291.095C173.948 291.147 173.774 291.203 173.598 291.255C172.21 291.664 170.81 292.048 169.403 292.416C169.058 292.506 168.713 292.593 168.367 292.68C167.061 293.01 165.748 293.327 164.426 293.621C164.315 293.646 164.206 293.675 164.096 293.7C164.059 293.708 164.022 293.715 163.985 293.722C162.847 293.971 161.703 294.208 160.554 294.429C160.323 294.474 160.09 294.512 159.858 294.555C158.938 294.728 158.016 294.896 157.089 295.051C156.672 295.121 156.251 295.182 155.833 295.248C155.087 295.366 154.341 295.482 153.59 295.588C153.118 295.655 152.644 295.715 152.17 295.777C151.466 295.869 150.763 295.959 150.055 296.042C149.863 296.064 149.674 296.092 149.483 296.113C149.115 296.155 148.744 296.186 148.376 296.224C147.858 296.278 147.341 296.332 146.821 296.381C146.234 296.435 145.645 296.483 145.056 296.53C144.536 296.572 144.016 296.614 143.494 296.65C142.902 296.691 142.307 296.724 141.714 296.759C141.191 296.789 140.669 296.82 140.145 296.844C139.546 296.871 138.945 296.89 138.345 296.911C137.822 296.928 137.299 296.947 136.775 296.959C136.636 296.962 136.499 296.97 136.36 296.972C135.485 296.989 134.608 296.998 133.729 297C132.286 297.002 130.85 296.975 129.418 296.935C129.018 296.923 128.62 296.908 128.221 296.894C127.074 296.852 125.93 296.796 124.79 296.728C124.567 296.715 124.342 296.71 124.119 296.696C123.998 296.688 123.878 296.677 123.757 296.669C123.379 296.643 123.002 296.612 122.624 296.583C121.941 296.531 121.257 296.477 120.576 296.416C120.165 296.379 119.756 296.338 119.346 296.298C118.695 296.233 118.044 296.165 117.395 296.091C116.983 296.045 116.572 295.998 116.161 295.947C115.503 295.867 114.847 295.781 114.191 295.692C113.803 295.64 113.415 295.588 113.027 295.532C112.877 295.51 112.726 295.492 112.576 295.471C111.998 295.385 111.422 295.29 110.846 295.197C110.542 295.149 110.236 295.104 109.933 295.053C108.907 294.882 107.884 294.7 106.866 294.507C106.713 294.478 106.561 294.445 106.408 294.416C105.544 294.249 104.682 294.076 103.825 293.893C103.476 293.818 103.13 293.739 102.783 293.662C102.305 293.556 101.825 293.456 101.35 293.345C101.171 293.304 100.993 293.257 100.814 293.215C100.395 293.116 99.9784 293.013 99.5615 292.911C98.9631 292.763 98.3655 292.614 97.771 292.459C97.3487 292.35 96.9272 292.237 96.5057 292.124C95.915 291.965 95.3259 291.801 94.7382 291.634C94.3237 291.516 93.9099 291.398 93.4969 291.276C92.9008 291.101 92.307 290.92 91.7148 290.736C91.3186 290.614 90.9218 290.493 90.5265 290.367C90.3803 290.321 90.2319 290.277 90.0857 290.23C89.675 290.098 89.2689 289.956 88.8605 289.82C88.3998 289.667 87.9375 289.515 87.4783 289.357C86.9292 289.168 86.3846 288.972 85.8385 288.776C85.3878 288.614 84.9355 288.455 84.4879 288.289C83.9334 288.083 83.3834 287.87 82.8319 287.658C82.3989 287.491 81.9643 287.327 81.5336 287.157C80.9691 286.933 80.4091 286.7 79.8484 286.469C79.4361 286.299 79.0224 286.133 78.6124 285.96C78.5578 285.936 78.5024 285.915 78.4478 285.892C78.1317 285.758 77.8218 285.614 77.5072 285.478C76.848 285.192 76.1881 284.906 75.5343 284.61C75.1228 284.424 74.7167 284.231 74.3075 284.041C73.7061 283.761 73.1046 283.481 72.5085 283.194C72.0816 282.988 71.6586 282.776 71.2341 282.566C70.6626 282.283 70.0919 281.999 69.5258 281.708C69.0951 281.487 68.6674 281.262 68.2398 281.037C67.6852 280.745 67.1322 280.451 66.5823 280.152C66.39 280.047 66.1931 279.948 66.0016 279.842C65.8193 279.742 65.6432 279.634 65.4616 279.533C64.5748 279.04 63.6957 278.536 62.8219 278.024C62.5635 277.873 62.302 277.725 62.0451 277.571C60.946 276.916 59.8577 276.248 58.7809 275.565C58.537 275.41 58.2971 275.25 58.054 275.094C57.1995 274.545 56.3527 273.986 55.512 273.418C55.1951 273.204 54.879 272.989 54.5644 272.772C53.6745 272.159 52.7923 271.536 51.9186 270.904C51.7847 270.807 51.6471 270.714 51.5133 270.618C51.4748 270.59 51.4379 270.56 51.3994 270.532C50.4841 269.862 49.5773 269.181 48.6813 268.488C48.4951 268.345 48.3136 268.196 48.1283 268.052C47.4199 267.498 46.7161 266.941 46.0208 266.375C45.7124 266.124 45.4093 265.868 45.104 265.615C44.5364 265.144 43.9711 264.672 43.4127 264.192C43.0804 263.907 42.7519 263.619 42.4227 263.331C41.8951 262.868 41.3706 262.403 40.8507 261.933C40.5215 261.635 40.193 261.337 39.8669 261.036C39.3462 260.555 38.8316 260.07 38.3194 259.582C38.0125 259.289 37.7048 258.998 37.401 258.703C36.8442 258.161 36.2958 257.613 35.7497 257.062C35.5036 256.815 35.2544 256.57 35.0106 256.32C34.2268 255.517 33.4522 254.706 32.69 253.884C32.6293 253.819 32.5716 253.752 32.5108 253.687C31.8117 252.929 31.1218 252.164 30.4418 251.39C30.195 251.11 29.9542 250.824 29.7104 250.542C29.2212 249.976 28.7351 249.409 28.256 248.834C27.9806 248.504 27.7098 248.171 27.4383 247.838C26.9976 247.299 26.5607 246.757 26.13 246.21C25.8554 245.863 25.5839 245.514 25.3132 245.164C24.8886 244.614 24.4694 244.06 24.0533 243.503C23.7964 243.159 23.5388 242.815 23.285 242.468C22.8489 241.87 22.4205 241.268 21.9951 240.663C21.7767 240.353 21.5552 240.045 21.3398 239.733C20.7853 238.93 20.2415 238.119 19.7062 237.304C19.63 237.188 19.5516 237.075 19.4762 236.959C18.8686 236.025 18.2748 235.083 17.6926 234.133C17.5164 233.846 17.3472 233.554 17.1734 233.265C16.7719 232.598 16.3727 231.929 15.9835 231.254C15.7751 230.892 15.572 230.528 15.3674 230.164C15.0221 229.551 14.6806 228.936 14.346 228.317C14.1376 227.931 13.9322 227.543 13.7276 227.154C13.4053 226.543 13.0893 225.928 12.777 225.31C12.5809 224.921 12.3839 224.531 12.1916 224.14C11.8747 223.495 11.5663 222.846 11.2602 222.195C11.0895 221.832 10.9164 221.471 10.7495 221.106C10.3918 220.324 10.0465 219.538 9.70577 218.748C9.60347 218.511 9.49655 218.278 9.39579 218.041C8.95969 217.013 8.53898 215.978 8.13134 214.937C8.02673 214.67 7.92982 214.399 7.82676 214.131C7.52833 213.353 7.2353 212.573 6.95302 211.788C6.81535 211.405 6.68459 211.018 6.55076 210.634C6.31463 209.955 6.08233 209.276 5.85851 208.592C5.7216 208.173 5.58858 207.753 5.45629 207.332C5.24708 206.668 5.044 206.003 4.84633 205.334C4.72096 204.909 4.59639 204.484 4.47486 204.057C4.28027 203.37 4.09414 202.68 3.91185 201.99C3.80494 201.583 3.69494 201.178 3.59188 200.77C3.39575 199.991 3.21114 199.209 3.02962 198.425C2.95578 198.105 2.87582 197.786 2.80429 197.464C2.55893 196.359 2.32741 195.249 2.11359 194.133C2.07667 193.94 2.0459 193.745 2.00975 193.552C1.83746 192.627 1.67284 191.701 1.52209 190.77C1.45825 190.377 1.40289 189.981 1.3429 189.586C1.23061 188.847 1.12215 188.107 1.02447 187.365C0.966019 186.923 0.913726 186.48 0.859886 186.037C0.774511 185.33 0.694504 184.622 0.622205 183.911C0.576056 183.456 0.531477 183.001 0.490713 182.546C0.426105 181.827 0.36916 181.107 0.317628 180.386C0.286093 179.944 0.252254 179.504 0.225335 179.061C0.177648 178.278 0.142248 177.492 0.109944 176.706C0.0945616 176.326 0.0738038 175.948 0.0614975 175.567C0.0253479 174.402 0.00230743 173.233 0 172.06L0.0422972 155.378C0.0446046 156.552 0.067645 157.72 0.103795 158.886C0.116101 159.266 0.136906 159.645 0.152289 160.024C0.184593 160.811 0.219945 161.597 0.267632 162.38C0.294552 162.822 0.327621 163.263 0.359925 163.705C0.412227 164.426 0.468402 165.146 0.53301 165.864C0.574544 166.32 0.618354 166.775 0.664502 167.229C0.736801 167.939 0.816808 168.648 0.902183 169.355C0.955254 169.798 1.00832 170.242 1.06677 170.683C1.16522 171.427 1.27367 172.166 1.3852 172.905C1.44519 173.3 1.50059 173.695 1.56443 174.089C1.71518 175.02 1.87976 175.946 2.05205 176.87C2.0882 177.064 2.11897 177.259 2.15589 177.452C2.36971 178.568 2.60123 179.678 2.84659 180.783C2.91812 181.104 2.99731 181.423 3.07192 181.744C3.25267 182.528 3.43728 183.311 3.63418 184.089C3.73724 184.497 3.84724 184.902 3.95415 185.308C4.13644 185.999 4.32257 186.689 4.51716 187.375C4.63791 187.802 4.76249 188.227 4.88863 188.652C5.0863 189.32 5.29015 189.986 5.49858 190.651C5.63088 191.071 5.76395 191.492 5.90085 191.91C6.12467 192.594 6.35693 193.274 6.59305 193.952C6.72688 194.338 6.85765 194.723 6.99532 195.106C7.2776 195.892 7.5714 196.672 7.86906 197.45C7.97135 197.718 8.06903 197.988 8.17363 198.256C8.58051 199.296 9.002 200.33 9.43734 201.358C9.53963 201.598 9.6481 201.835 9.75116 202.075C10.0904 202.861 10.4349 203.646 10.791 204.424C10.9579 204.789 11.1318 205.151 11.3017 205.514C11.6071 206.165 11.9155 206.814 12.2332 207.459C12.4255 207.851 12.6224 208.24 12.8185 208.629C13.1292 209.245 13.4454 209.859 13.7669 210.469C13.9722 210.86 14.1791 211.249 14.3891 211.638C14.7229 212.255 15.0636 212.869 15.4082 213.481C15.6135 213.845 15.8166 214.21 16.025 214.572C16.4142 215.247 16.8126 215.916 17.2149 216.583C17.3887 216.872 17.5579 217.164 17.7341 217.451C18.3163 218.4 18.9094 219.342 19.517 220.275C19.5954 220.396 19.677 220.513 19.7554 220.632C20.2884 221.444 20.8291 222.251 21.3813 223.051C21.5975 223.363 21.819 223.672 22.0382 223.983C22.4628 224.586 22.8904 225.188 23.3257 225.785C23.5803 226.133 23.8387 226.479 24.0972 226.824C24.5117 227.38 24.9309 227.933 25.3547 228.483C25.6255 228.833 25.8977 229.181 26.1723 229.529C26.6038 230.076 27.0407 230.618 27.4806 231.157C27.7521 231.489 28.0229 231.823 28.2983 232.153C28.7759 232.726 29.2612 233.292 29.7496 233.857C29.995 234.141 30.2372 234.428 30.4849 234.71C31.164 235.482 31.8532 236.247 32.5516 237.004C32.6124 237.069 32.6708 237.137 32.7308 237.202C33.4923 238.024 34.2668 238.835 35.0513 239.638C35.2959 239.888 35.5459 240.132 35.792 240.381C36.3373 240.93 36.8857 241.479 37.441 242.019C37.7464 242.316 38.0556 242.608 38.3632 242.902C38.874 243.389 39.3877 243.873 39.9069 244.352C40.2338 244.654 40.5637 244.954 40.8937 245.253C41.4121 245.722 41.9351 246.186 42.4612 246.647C42.7912 246.936 43.1219 247.226 43.455 247.511C44.0111 247.988 44.5733 248.459 45.1386 248.927C45.447 249.183 45.7531 249.442 46.0639 249.695C46.7553 250.258 47.4553 250.812 48.1598 251.361C48.349 251.509 48.5344 251.66 48.7236 251.807C49.6188 252.499 50.5249 253.179 51.4394 253.849C51.6125 253.976 51.7901 254.098 51.964 254.224C52.8354 254.857 53.7169 255.478 54.6052 256.09C54.9198 256.307 55.2359 256.522 55.5528 256.736C56.3927 257.303 57.2403 257.862 58.0948 258.412C58.3379 258.568 58.5778 258.728 58.8216 258.883C59.8984 259.566 60.9868 260.235 62.0859 260.889C62.3435 261.042 62.6043 261.191 62.8627 261.342C63.7357 261.854 64.6156 262.357 65.5024 262.851C65.8754 263.058 66.2485 263.266 66.6238 263.471C67.1737 263.769 67.7268 264.064 68.2813 264.356C68.709 264.581 69.1366 264.806 69.5673 265.027C70.1334 265.317 70.7041 265.602 71.2756 265.885C71.7001 266.095 72.1232 266.307 72.5501 266.513C73.1461 266.8 73.7476 267.08 74.3491 267.359C74.7575 267.549 75.1643 267.742 75.5758 267.928C76.2296 268.224 76.8888 268.51 77.5487 268.796C77.9179 268.956 78.2832 269.121 78.6539 269.278C79.0639 269.452 79.4777 269.618 79.89 269.787C80.4507 270.018 81.0106 270.251 81.5752 270.476C82.0044 270.646 82.4374 270.808 82.8681 270.974C83.4219 271.187 83.9741 271.402 84.5318 271.609C84.9763 271.773 85.4247 271.931 85.8724 272.091C86.4215 272.288 86.9699 272.486 87.5229 272.677C87.9798 272.834 88.4405 272.985 88.8997 273.138C89.455 273.322 90.0096 273.508 90.5687 273.686C90.9633 273.812 91.3602 273.933 91.7571 274.055C92.3501 274.238 92.9431 274.419 93.5392 274.595C93.9522 274.717 94.366 274.834 94.7805 274.952C95.3682 275.119 95.9573 275.283 96.548 275.443C96.9688 275.556 97.3903 275.668 97.8133 275.778C98.4086 275.933 99.0055 276.082 99.6039 276.229C100.021 276.332 100.438 276.435 100.856 276.533C101.51 276.688 102.167 276.835 102.825 276.981C103.173 277.057 103.519 277.137 103.867 277.211C104.725 277.394 105.586 277.567 106.45 277.735C106.603 277.764 106.755 277.797 106.908 277.826C107.926 278.02 108.949 278.201 109.975 278.372C110.279 278.423 110.584 278.467 110.889 278.516C111.614 278.632 112.341 278.746 113.07 278.852C113.457 278.907 113.845 278.959 114.234 279.012C114.889 279.101 115.546 279.187 116.204 279.267C116.615 279.317 117.026 279.364 117.438 279.411C118.087 279.484 118.738 279.553 119.389 279.617C119.798 279.658 120.208 279.698 120.619 279.735C121.3 279.797 121.984 279.851 122.667 279.903C123.045 279.931 123.422 279.963 123.8 279.988C124.143 280.011 124.489 280.027 124.833 280.048C125.973 280.117 127.116 280.173 128.264 280.214C128.663 280.228 129.061 280.243 129.461 280.255C130.893 280.295 132.329 280.322 133.772 280.32C134.791 280.319 135.805 280.302 136.818 280.279C137.343 280.267 137.865 280.248 138.388 280.231C138.986 280.207 139.588 280.187 140.186 280.16Z" fill="url(#paint2_linear_43_2396)"/>
</g>
<g filter="url(#filter3_i_43_2396)">
<path d="M134.132 267.884C200.313 267.786 253.893 217.382 253.776 155.32C253.658 93.245 199.885 43.001 133.704 43.0994C67.5018 43.1978 13.9209 93.6014 14.0395 155.676C14.1574 217.739 67.9298 267.983 134.132 267.884ZM133.727 54.6868C193.09 54.5982 241.305 99.6551 241.41 155.338C241.516 211.002 193.474 256.208 134.11 256.297C74.7258 256.385 26.5111 211.321 26.4049 155.658C26.2987 99.9752 74.342 54.7753 133.727 54.6868Z" fill="url(#paint3_linear_43_2396)"/>
</g>
<path d="M4.9978 121C1.74194 131.81 0 143.215 0 155C0 224.036 59.77 280 133.5 280C207.23 280 267 224.036 267 155C267 143.215 265.258 131.81 262.002 121C246.186 173.513 194.643 204 133.5 204C72.3568 204 20.8141 173.513 4.9978 121Z" fill="url(#paint4_radial_43_2396)" fill-opacity="0.75"/>
<g filter="url(#filter4_ddi_43_2396)">
<path d="M137.238 92.1059C135.884 92.1059 134.631 92.7795 133.48 94.1266V150.403H160.701V155.354L150.341 160.607H133.48V199.506C133.48 204.558 134.022 208.195 135.105 210.418C136.189 212.64 138.491 213.752 142.012 213.752V220.117L99.3519 238L96 231.332C99.0472 231.332 101.959 229.547 104.735 225.977C107.241 222.609 108.493 217.355 108.493 210.215V90.9945C108.493 90.5904 110.051 89.7147 113.166 88.3676C116.348 86.9531 120.31 85.3366 125.05 83.518C129.857 81.6993 134.733 79.9144 139.676 78.1631C144.619 76.3445 148.953 74.8626 152.677 73.7176C156.401 72.5725 158.738 72 159.686 72C160.295 72 160.972 73.1114 161.717 75.3341C162.53 77.5569 163.342 80.2848 164.155 83.518C164.967 86.6837 165.746 89.6811 166.491 92.51C167.913 98.168 169.403 102.344 170.96 105.038C172.585 107.733 175.599 109.08 180 109.08V113.222C178.51 113.896 176.445 114.839 173.804 116.051C171.231 117.264 168.15 118.745 164.561 120.497C157.18 124.067 153.253 125.851 152.779 125.851C150.68 125.851 148.039 120.227 144.856 108.979C141.674 97.7302 139.134 92.1059 137.238 92.1059Z" fill="url(#paint5_linear_43_2396)"/>
</g>
<defs>
<filter id="filter0_d_43_2396" x="25.3264" y="52.5687" width="217.608" height="206.051" filterUnits="userSpaceOnUse" color-interpolation-filters="sRGB">
<feFlood flood-opacity="0" result="BackgroundImageFix"/>
<feColorMatrix in="SourceAlpha" type="matrix" values="0 0 0 0 0 0 0 0 0 0 0 0 0 0 0 0 0 0 127 0" result="hardAlpha"/>
<feOffset dy="2"/>
<feComposite in2="hardAlpha" operator="out"/>
<feColorMatrix type="matrix" values="0 0 0 0 0.166667 0 0 0 0 0.0998818 0 0 0 0 0.00972222 0 0 0 1 0"/>
<feBlend mode="normal" in2="BackgroundImageFix" result="effect1_dropShadow_43_2396"/>
<feBlend mode="normal" in="SourceGraphic" in2="effect1_dropShadow_43_2396" result="shape"/>
</filter>
<filter id="filter1_d_43_2396" x="0.0427246" y="30" width="266.957" height="252.316" filterUnits="userSpaceOnUse" color-interpolation-filters="sRGB">
<feFlood flood-opacity="0" result="BackgroundImageFix"/>
<feColorMatrix in="SourceAlpha" type="matrix" values="0 0 0 0 0 0 0 0 0 0 0 0 0 0 0 0 0 0 127 0" result="hardAlpha"/>
<feOffset dy="2"/>
<feComposite in2="hardAlpha" operator="out"/>
<feColorMatrix type="matrix" values="0 0 0 0 0.166667 0 0 0 0 0.0998818 0 0 0 0 0.00972222 0 0 0 1 0"/>
<feBlend mode="normal" in2="BackgroundImageFix" result="effect1_dropShadow_43_2396"/>
<feBlend mode="normal" in="SourceGraphic" in2="effect1_dropShadow_43_2396" result="shape"/>
</filter>
<filter id="filter2_d_43_2396" x="0" y="154.98" width="267" height="144.02" filterUnits="userSpaceOnUse" color-interpolation-filters="sRGB">
<feFlood flood-opacity="0" result="BackgroundImageFix"/>
<feColorMatrix in="SourceAlpha" type="matrix" values="0 0 0 0 0 0 0 0 0 0 0 0 0 0 0 0 0 0 127 0" result="hardAlpha"/>
<feOffset dy="2"/>
<feComposite in2="hardAlpha" operator="out"/>
<feColorMatrix type="matrix" values="0 0 0 0 0.166667 0 0 0 0 0.0998818 0 0 0 0 0.00972222 0 0 0 1 0"/>
<feBlend mode="normal" in2="BackgroundImageFix" result="effect1_dropShadow_43_2396"/>
<feBlend mode="normal" in="SourceGraphic" in2="effect1_dropShadow_43_2396" result="shape"/>
</filter>
<filter id="filter3_i_43_2396" x="14.0393" y="43.0992" width="239.737" height="224.785" filterUnits="userSpaceOnUse" color-interpolation-filters="sRGB">
<feFlood flood-opacity="0" result="BackgroundImageFix"/>
<feBlend mode="normal" in="SourceGraphic" in2="BackgroundImageFix" result="shape"/>
<feColorMatrix in="SourceAlpha" type="matrix" values="0 0 0 0 0 0 0 0 0 0 0 0 0 0 0 0 0 0 127 0" result="hardAlpha"/>
<feOffset dy="4"/>
<feComposite in2="hardAlpha" operator="arithmetic" k2="-1" k3="1"/>
<feColorMatrix type="matrix" values="0 0 0 0 0.7375 0 0 0 0 0.525408 0 0 0 0 0.113698 0 0 0 1 0"/>
<feBlend mode="normal" in2="shape" result="effect1_innerShadow_43_2396"/>
</filter>
<filter id="filter4_ddi_43_2396" x="20.2" y="0.199997" width="235.6" height="317.6" filterUnits="userSpaceOnUse" color-interpolation-filters="sRGB">
<feFlood flood-opacity="0" result="BackgroundImageFix"/>
<feColorMatrix in="SourceAlpha" type="matrix" values="0 0 0 0 0 0 0 0 0 0 0 0 0 0 0 0 0 0 127 0" result="hardAlpha"/>
<feOffset dy="4"/>
<feGaussianBlur stdDeviation="37.9"/>
<feComposite in2="hardAlpha" operator="out"/>
<feColorMatrix type="matrix" values="0 0 0 0 0.675 0 0 0 0 0.2538 0 0 0 0 0.016875 0 0 0 1 0"/>
<feBlend mode="normal" in2="BackgroundImageFix" result="effect1_dropShadow_43_2396"/>
<feColorMatrix in="SourceAlpha" type="matrix" values="0 0 0 0 0 0 0 0 0 0 0 0 0 0 0 0 0 0 127 0" result="hardAlpha"/>
<feOffset dy="4"/>
<feComposite in2="hardAlpha" operator="out"/>
<feColorMatrix type="matrix" values="0 0 0 0 0.717647 0 0 0 0 0.435294 0 0 0 0 0.0352941 0 0 0 1 0"/>
<feBlend mode="normal" in2="effect1_dropShadow_43_2396" result="effect2_dropShadow_43_2396"/>
<feBlend mode="normal" in="SourceGraphic" in2="effect2_dropShadow_43_2396" result="shape"/>
<feColorMatrix in="SourceAlpha" type="matrix" values="0 0 0 0 0 0 0 0 0 0 0 0 0 0 0 0 0 0 127 0" result="hardAlpha"/>
<feOffset dx="1" dy="1"/>
<feComposite in2="hardAlpha" operator="arithmetic" k2="-1" k3="1"/>
<feColorMatrix type="matrix" values="0 0 0 0 0.996078 0 0 0 0 0.909804 0 0 0 0 0.65098 0 0 0 1 0"/>
<feBlend mode="normal" in2="shape" result="effect3_innerShadow_43_2396"/>
</filter>
<linearGradient id="paint0_linear_43_2396" x1="-63.2828" y1="122.711" x2="242.93" y2="121.64" gradientUnits="userSpaceOnUse">
<stop stop-color="#EFC250"/>
<stop offset="0.45" stop-color="#FFE4A6"/>
<stop offset="0.7" stop-color="#D0961F"/>
<stop offset="1" stop-color="#A25B09"/>
</linearGradient>
<linearGradient id="paint1_linear_43_2396" x1="-108.661" y1="116.046" x2="266.995" y2="114.732" gradientUnits="userSpaceOnUse">
<stop stop-color="#EFC250"/>
<stop offset="0.45" stop-color="#FFE4A6"/>
<stop offset="0.7" stop-color="#D0961F"/>
<stop offset="1" stop-color="#A25B09"/>
</linearGradient>
<linearGradient id="paint2_linear_43_2396" x1="-59.7238" y1="196.023" x2="267.036" y2="201.785" gradientUnits="userSpaceOnUse">
<stop stop-color="#CD911D"/>
<stop offset="0.295238" stop-color="#9A5D15"/>
<stop offset="0.45" stop-color="#A47022"/>
<stop offset="0.7" stop-color="#A97323"/>
<stop offset="1" stop-color="#774B09"/>
</linearGradient>
<linearGradient id="paint3_linear_43_2396" x1="26.0218" y1="268.234" x2="194.704" y2="65.2765" gradientUnits="userSpaceOnUse">
<stop stop-color="#D09A24"/>
<stop offset="0.4" stop-color="#BC7916"/>
<stop offset="0.75" stop-color="#FFD074"/>
<stop offset="1" stop-color="#DBA84A"/>
</linearGradient>
<radialGradient id="paint4_radial_43_2396" cx="0" cy="0" r="1" gradientUnits="userSpaceOnUse" gradientTransform="translate(69.5455 270.616) rotate(34.895) scale(115.881 115.881)">
<stop stop-color="white"/>
<stop offset="1" stop-color="white" stop-opacity="0"/>
</radialGradient>
<linearGradient id="paint5_linear_43_2396" x1="126.997" y1="126.49" x2="190.773" y2="165.538" gradientUnits="userSpaceOnUse">
<stop stop-color="#FFD25D"/>
<stop offset="0.4944" stop-color="#FFEAA9"/>
<stop offset="1" stop-color="#FBBE0A"/>
</linearGradient>
</defs>
</svg>
